<?xml version="1.0" encoding="iso-8859-1"?><svg width="1596" height="1572" viewBox="0 0 1596 1572" xmlns="http://www.w3.org/2000/svg" xmlns:xlink="http://www.w3.org/1999/xlink"><svg viewBox="-10 -10 532 532" width="532" height="532" id="icon_chart" xmlns="http://www.w3.org/2000/svg"><path d="M488.399 492h-21.933V173.536c0-14.823-12.06-26.882-26.882-26.882H390.56c-14.823 0-26.882 12.06-26.882 26.882V492h-55.692V317.825c0-14.823-12.059-26.882-26.882-26.882H232.08c-14.823 0-26.882 12.06-26.882 26.882V492h-55.692v-90.204c0-14.823-12.06-26.882-26.882-26.882H73.599c-14.823 0-26.882 12.06-26.882 26.882V492H23.601c-5.523 0-10 4.477-10 10s4.477 10 10 10h464.798c5.523 0 10-4.477 10-10s-4.477-10-10-10zm-358.895 0H66.716v-90.204a6.89 6.89 0 016.882-6.882h49.024a6.89 6.89 0 016.882 6.882V492zm158.481 0h-62.788V317.825a6.89 6.89 0 016.882-6.882h49.024a6.89 6.89 0 016.882 6.882V492zm158.481 0h-62.788V173.536a6.89 6.89 0 016.882-6.882h49.024a6.89 6.89 0 016.882 6.882V492zM466.442 10.516A9.965 9.965 0 00455.95.024c-.161-.007-.32-.024-.484-.024h-60.5c-5.523 0-10 4.477-10 10s4.477 10 10 10h37.357l-98.857 98.858-37.28-37.28a10.001 10.001 0 00-14.142 0l-179.769 179.77c-3.905 3.905-3.905 10.237 0 14.143 1.953 1.951 4.512 2.927 7.071 2.927s5.119-.976 7.071-2.929L289.115 102.79l37.28 37.28c3.905 3.905 10.237 3.905 14.143 0L446.466 34.143v33.81c0 5.523 4.477 10 10 10s10-4.477 10-10V11c0-.163-.017-.322-.024-.484z"/><circle cx="75.64" cy="303.31" r="10"/></svg><svg viewBox="-10 -10 508 508" width="508" height="508" id="icon_document" x="1064" y="532" xmlns="http://www.w3.org/2000/svg"><path d="M448.9 110.123c0-.1-.1-.3-.1-.4 0-.2-.1-.3-.1-.5 0-.1-.1-.3-.1-.4s-.1-.3-.2-.4c-.1-.1-.1-.3-.2-.4-.1-.1-.1-.3-.2-.4-.1-.1-.1-.3-.2-.4-.1-.2-.2-.4-.4-.6-.1-.1-.1-.2-.2-.3-.1-.2-.3-.4-.4-.5L364.5 3.702c-.2-.3-.5-.5-.7-.8-.1-.1-.1-.1-.2-.1l-.6-.6c-.1-.1-.2-.1-.3-.2-.2-.1-.4-.3-.6-.4-.1-.1-.2-.1-.3-.2l-.6-.3c-.1-.1-.2-.1-.3-.2-.2-.1-.4-.2-.7-.3-.1 0-.2-.1-.3-.1-.2-.1-.5-.1-.7-.2-.1 0-.2-.1-.3-.1-.3-.1-.5-.1-.8-.1h-.3c-.4 0-.7-.1-1.1-.1H90.5c-5.5 0-10 4.501-10 10.002v41.108H49c-5.5 0-10 4.501-10 10.002v416.885c0 5.501 4.5 10.002 10 10.002h349.2c5.5 0 10-4.501 10-10.002V436.89H439c5.5 0 10-4.501 10-10.002V112.023v-.9-.4c0-.2 0-.4-.1-.6zm-82.2-71.915l51.4 63.813h-51.4V38.208zm-17.1 80.216l27.6 34.007h-51.3V89.218l22.4 27.606c.4.6.8 1.1 1.3 1.6zm-249.1-98.52h246.2v63.113l-23-28.306c-.2-.3-.5-.5-.7-.8l-.2-.2c-.2-.2-.4-.3-.6-.5-.1-.1-.2-.1-.3-.2-.2-.1-.4-.3-.6-.4-.1-.1-.2-.1-.3-.2l-.6-.3c-.1-.1-.2-.1-.3-.1-.2-.1-.5-.2-.7-.3-.1 0-.2-.1-.3-.1-.2-.1-.5-.1-.7-.2-.1 0-.2-.1-.3-.1-.3-.1-.5-.1-.8-.1h-.3c-.4 0-.7-.1-1.1-.1H100.5V19.904zM59 467.996V71.015h246.9v91.419c0 5.501 4.5 10.002 10 10.002h72.3v295.561H59zm370-51.011h-20.8V162.333v-.9-.4c0-.2 0-.4-.1-.6 0-.1-.1-.3-.1-.4 0-.2-.1-.3-.1-.5s-.1-.3-.1-.4-.1-.3-.2-.4c-.1-.1-.1-.3-.2-.4-.1-.1-.1-.3-.2-.4-.1-.1-.1-.3-.2-.4-.1-.2-.2-.4-.3-.5-.1-.1-.1-.2-.2-.2-.2-.2-.3-.5-.5-.7l-27.6-34.007H429v294.859z"/><path d="M325.9 213.344H121.3c-5.5 0-10 4.501-10 10.002s4.5 10.002 10 10.002h204.6c5.5 0 10-4.501 10-10.002s-4.5-10.002-10-10.002zM325.9 274.356H121.3c-5.5 0-10 4.501-10 10.002s4.5 10.002 10 10.002h204.6c5.5 0 10-4.501 10-10.002s-4.5-10.002-10-10.002zM325.9 335.369H121.3c-5.5 0-10 4.501-10 10.002s4.5 10.002 10 10.002h204.6c5.5 0 10-4.501 10-10.002s-4.5-10.002-10-10.002zM325.9 396.381H121.3c-5.5 0-10 4.501-10 10.002s4.5 10.002 10 10.002h204.6c5.5 0 10-4.501 10-10.002s-4.5-10.002-10-10.002z"/></svg><svg viewBox="-10 -10 505 505" width="532" height="532" id="icon_minus" x="532" xmlns="http://www.w3.org/2000/svg"><path data-original="#000000" class="cactive-path" data-old_color="#000000" fill="#FFF" d="M0 227.5h485v30H0z"/></svg><svg viewBox="-10 -10 532 532" width="532" height="532" id="icon_plane" y="532" xmlns="http://www.w3.org/2000/svg"><path d="M511.996 60.921c.168-16.341-6.104-31.703-17.659-43.259C482.933 6.257 467.822 0 451.719 0l-.642.003c-16.341.168-31.571 6.755-42.885 18.545l-89.617 93.385L84.076 34.329l-69.253 69.253 195.97 120.664-80.635 84.026-63.288-10.39L0 364.75l109.054 38.197L147.25 512l66.87-66.87-10.39-63.288 84.026-80.635L408.42 497.178l69.254-69.253-77.604-234.499 93.384-89.617c11.789-11.316 18.374-26.547 18.542-42.888zm-39.335 21.221L365.608 184.876l77.739 234.907-29.285 29.285-120.248-195.295-122.277 117.343 10.454 63.675-22.193 22.193-27.18-77.602-77.602-27.18 22.193-22.193 63.675 10.454 117.343-122.276L62.933 97.94l29.285-29.285 234.907 77.739L429.859 39.341c5.679-5.919 13.326-9.225 21.529-9.31.107-.002.215-.002.321-.002 8.083 0 15.67 3.141 21.396 8.867 5.802 5.801 8.949 13.513 8.865 21.716-.085 8.203-3.391 15.849-9.309 21.53z"/></svg><svg viewBox="-10 -10 62 62" width="532" height="532" id="icon_plus" x="532" y="532" xmlns="http://www.w3.org/2000/svg"><path data-original="#000000" class="eactive-path" data-old_color="#000000" fill="#FFF" d="M42 20H22V0h-2v20H0v2h20v20h2V22h20z"/></svg><svg viewBox="-10 -10 507.6 507.6" width="507.6" height="507.6" id="icon_wallet" y="1064" xmlns="http://www.w3.org/2000/svg"><path d="M460.3 216.55h-11.6v-69.7c0-28.5-23.2-51.6-51.6-51.6h-10.7l.1-25.9c0-19.2-15.6-34.8-34.8-34.8H42.3c-23.1 0-42 18.6-42.3 41.7v342c0 19.2 15.6 34.8 34.8 34.8h362.4c28.5 0 51.6-23.2 51.6-51.6v-69.8h11.6c15 0 27.2-12.2 27.2-27.2v-60.7c-.1-15-12.3-27.2-27.3-27.2zm-418-158h309.4c5.9 0 10.8 4.8 10.8 10.7l-.1 26H42.3c-10.1 0-18.3-8.2-18.3-18.3s8.2-18.4 18.3-18.4zm382.4 342.8c0 15.2-12.4 27.6-27.6 27.6H34.7c-5.9 0-10.8-4.8-10.8-10.8v-303.1c5.6 2.7 11.8 4.2 18.4 4.2h354.8c15.2 0 27.6 12.4 27.6 27.6v69.7h-81.9c-15 0-27.2 12.2-27.2 27.2v60.7c0 15 12.2 27.2 27.2 27.2h81.9v69.7zm38.8-96.9c0 1.8-1.4 3.2-3.2 3.2H342.9c-1.8 0-3.2-1.4-3.2-3.2v-60.7c0-1.7 1.4-3.2 3.2-3.2h117.4c1.7 0 3.2 1.4 3.2 3.2v60.7z"/></svg><svg viewBox="-10 -10 391.23 391.23" width="532" height="532" id="icon_x" x="1064" xmlns="http://www.w3.org/2000/svg"><path data-original="#000000" class="gactive-path" data-old_color="#000000" fill="#FFF" d="M371.23 21.213L350.018 0 185.615 164.402 21.213 0 0 21.213l164.402 164.402L0 350.018l21.213 21.212 164.402-164.402L350.018 371.23l21.212-21.212-164.402-164.403z"/></svg></svg>