<?xml version="1.0" encoding="iso-8859-1"?><svg width="1033" height="517" viewBox="0 0 1033 517" xmlns="http://www.w3.org/2000/svg" xmlns:xlink="http://www.w3.org/1999/xlink"><svg viewBox="-10 -10 516.16 516.16" width="516.16" height="516.16" id="baz-icon-01" xmlns="http://www.w3.org/2000/svg"><path d="M248.082.003C111.07.003 0 111.061 0 248.085c0 137 111.07 248.07 248.082 248.07 137.006 0 248.076-111.07 248.076-248.07C496.158 111.061 385.088.003 248.082.003z" fill="#56b48c"/><path d="M320.516 255.136c-3.516-8.496-8.35-15.843-14.502-22.046-6.152-6.2-13.307-11.06-21.46-14.575-8.155-3.516-16.919-5.273-26.294-5.273-11.719 0-24.513 3.712-38.379 11.133l8.35-47.461h69.58c7.226 0 12.694-1.561 16.406-4.688 3.71-3.124 5.566-7.226 5.566-12.305 0-11.62-7.617-17.432-22.852-17.432h-77.344c-8.4 0-14.454 1.904-18.164 5.713-3.712 3.809-6.251 9.913-7.617 18.311l-12.304 70.166c-1.076 6.152-1.611 9.474-1.611 9.961 0 4.395 1.854 8.327 5.566 11.792 3.71 3.468 7.958 5.2 12.744 5.2 4.395 0 9.984-2.563 16.772-7.69 6.786-5.127 11.986-8.716 15.601-10.767 3.612-2.051 9.618-3.076 18.018-3.076 6.834 0 13.037 1.637 18.604 4.907 5.566 3.273 10.009 8.229 13.33 14.868 3.319 6.642 4.98 14.648 4.98 24.023 0 8.693-1.538 16.457-4.614 23.291-3.076 6.837-7.448 12.208-13.11 16.113-5.665 3.907-12.257 5.859-19.775 5.859-8.203 0-15.626-2.417-22.266-7.251-6.642-4.834-11.916-11.595-15.82-20.288-4.005-9.471-10.107-14.209-18.311-14.209-4.786 0-8.766 1.71-11.938 5.127-3.175 3.419-4.761 7.031-4.761 10.84 0 6.251 2.271 13.55 6.812 21.899s12.254 15.747 23.145 22.192c10.888 6.445 25.072 9.668 42.554 9.668 15.624 0 29.418-3.419 41.382-10.254 11.961-6.834 21.117-16.063 27.466-27.686 6.347-11.62 9.521-24.511 9.521-38.672-.002-9.761-1.76-18.894-5.275-27.39z" fill="#fff"/></svg><svg viewBox="-10 -10 516.16 516.16" width="516.16" height="516.16" id="baz-icon-02" x="516.16" xmlns="http://www.w3.org/2000/svg"><path d="M248.082.003C111.07.003 0 111.061 0 248.085c0 137 111.07 248.07 248.082 248.07 137.006 0 248.076-111.07 248.076-248.07C496.158 111.061 385.088.003 248.082.003z" fill="#56b48c"/><path d="M321.248 258.652c-3.223-8.69-7.789-16.234-13.696-22.632-5.91-6.395-12.794-11.327-20.654-14.795-7.862-3.465-16.432-5.2-25.708-5.2-9.668 0-18.409 1.904-26.221 5.713-7.814 3.809-15.04 9.668-21.68 17.578 1.268-26.562 5.468-45.019 12.598-55.371 3.516-5.077 7.837-9.105 12.964-12.085 5.127-2.978 10.277-4.468 15.454-4.468 6.445 0 12.108 1.783 16.992 5.347 4.882 3.566 8.446 8.276 10.693 14.136 1.659 4.591 4.248 8.18 7.764 10.767 3.516 2.589 7.324 3.882 11.426 3.882 4.688 0 8.544-1.634 11.572-4.907 3.026-3.271 4.541-6.908 4.541-10.913 0-6.64-2.417-13.573-7.251-20.801-4.834-7.226-12.012-13.28-21.533-18.164-9.521-4.882-20.533-7.324-33.032-7.324-12.989 0-24.562 2.442-34.717 7.324-10.158 4.884-18.8 12.11-25.928 21.68-7.13 9.572-12.598 21.632-16.406 36.182-3.809 14.552-5.713 31.055-5.713 49.512 0 22.657 3.149 41.821 9.448 57.495s15.404 27.516 27.319 35.522c11.913 8.009 26.074 12.012 42.48 12.012 14.257 0 27.026-3.149 38.306-9.448s20.068-15.063 26.367-26.294c6.299-11.229 9.448-23.73 9.448-37.5.001-9.473-1.61-18.555-4.833-27.248zm-43.945 59.546c-6.445 8.057-14.601 12.085-24.463 12.085-10.353 0-18.947-4.395-25.781-13.184-6.837-8.789-10.254-19.775-10.254-32.959 0-8.203 1.685-15.355 5.054-21.46 3.369-6.102 7.812-10.767 13.33-13.989 5.516-3.223 11.302-4.834 17.358-4.834 6.347 0 12.158 1.685 17.432 5.054 5.274 3.369 9.423 8.253 12.451 14.648 3.026 6.397 4.541 14.04 4.541 22.925 0 13.087-3.223 23.657-9.668 31.714z" fill="#fff"/></svg></svg>