<?xml version="1.0"?>
<svg xmlns="http://www.w3.org/2000/svg" height="512px" viewBox="0 0 512 512" width="512px" class=""><g><path d="m512 199.453125v-30.070313h-22.28125v-60.144531h-41.054688l-192.664062-109.238281-192.664062 109.238281h-41.054688v60.144531h-22.28125v30.070313h51.675781l-8.808593 222.332031h-20.585938v60.144532h-22.28125v30.070312h512v-30.070312h-22.28125v-60.144532h-26.203125l-8.808594-222.332031zm-256-164.90625 131.734375 74.691406h-263.46875zm-203.71875 104.761719h407.4375v30.074218h-407.4375zm150.632812 282.476562h-53.875l-8.808593-222.332031h71.492187zm38.832032-222.332031h28.507812l8.808594 222.332031h-46.125zm58.53125 0h65.875l-8.808594 222.332031h-48.257812zm-218.578125 0h28.507812l8.808594 222.332031h-46.125zm-29.417969 282.476563v-30.074219h407.4375v30.074219zm381.210938-60.144532h-46.125l8.808593-222.332031h28.507813zm0 0" data-original="#000000" class="active-path" data-old_color="#000000" fill="#CCCCCC"/></g> </svg>
