<?xml version="1.0"?>
<svg xmlns="http://www.w3.org/2000/svg" xmlns:xlink="http://www.w3.org/1999/xlink" version="1.1" id="Layer_1" x="0px" y="0px" viewBox="0 0 415.144 415.144" style="enable-background:new 0 0 415.144 415.144;" xml:space="preserve" width="512px" height="512px"><g><g transform="translate(0 -540.36)">
	<g>
		<g>
			<path d="M322.572,541.004c-2.7-1.2-5.9-0.7-8.1,1.3c-43.2,39.1-71.1,93.3-71.1,138.1v117.5c0,4.1,3.4,7.5,7.5,7.5h18.4v142.5     c0,4.1,3.4,7.5,7.5,7.5h42.7c4.1,0,7.5-3.4,7.6-7.5v-400C327.072,544.904,325.272,542.204,322.572,541.004z M311.972,940.404     h-27.7v-135h27.7V940.404z M311.972,790.404h-53.6v0v-110c0-35.7,21.1-80,53.6-114.6V790.404z" data-original="#000000" class="active-path" data-old_color="#000000" fill="#CCCCCC"/>
			<path d="M180.972,540.404c-4.1,0-7.5,3.4-7.5,7.5v100h-27.7v-100c0-4.1-3.4-7.5-7.5-7.5c-4.1,0-7.5,3.4-7.5,7.5v100h-27.7v-100     c0-4.1-3.4-7.5-7.5-7.5c-4.1,0-7.5,3.4-7.5,7.5v100v7.5v25c0,20.7,18.6,37.8,42.7,40.8v69.2h-16.8v141.3     c0,13.3,10.1,23.8,23,23.8h2.6c12.9,0,23-10.4,23-23.8v-141.3h-16.8v-69.2c24.2-3,42.7-20.1,42.7-40.8v-25v-7.5v-100     C188.472,543.804,185.072,540.404,180.972,540.404z M147.672,805.404v126.3h-0.1c0,4.2-2.8,8.8-8,8.8h-2.6c-5.2,0-8-4.5-8-8.8     v-126.3H147.672z M173.572,680.404h-0.1c0,14.2-16.1,26.2-35.2,26.2c-19.1,0-35.2-12-35.2-26.2v-17.5h70.5V680.404z" data-original="#000000" class="active-path" data-old_color="#000000" fill="#CCCCCC"/>
		</g>
	</g>
</g></g> </svg>
