<?xml version="1.0" encoding="iso-8859-1"?><!DOCTYPE svg PUBLIC "-//W3C//DTD SVG 1.1//EN" "http://www.w3.org/Graphics/SVG/1.1/DTD/svg11.dtd"><svg width="1043" height="1004" viewBox="0 0 1043 1004" xmlns="http://www.w3.org/2000/svg" xmlns:xlink="http://www.w3.org/1999/xlink"><svg width="471.85" height="471.85" viewBox="-10 -10 471.85 471.85" id="icon_arrow_down" y="532" xmlns="http://www.w3.org/2000/svg"><path d="M225.923 354.706c-8.098 0-16.195-3.092-22.369-9.263L9.27 151.157c-12.359-12.359-12.359-32.397 0-44.751 12.354-12.354 32.388-12.354 44.748 0l171.905 171.915 171.906-171.909c12.359-12.354 32.391-12.354 44.744 0 12.365 12.354 12.365 32.392 0 44.751L248.292 345.449c-6.177 6.172-14.274 9.257-22.369 9.257z"/></svg><svg width="304.93" height="304.93" viewBox="-10 -10 304.93 304.93" id="icon_arrow_up" x="471.85" y="532" xmlns="http://www.w3.org/2000/svg"><path d="M282.082 195.285L149.028 62.24c-1.901-1.903-4.088-2.856-6.562-2.856s-4.665.953-6.567 2.856L2.856 195.285C.95 197.191 0 199.378 0 201.853c0 2.474.953 4.664 2.856 6.566l14.272 14.271c1.903 1.903 4.093 2.854 6.567 2.854s4.664-.951 6.567-2.854l112.204-112.202 112.208 112.209c1.902 1.903 4.093 2.848 6.563 2.848 2.478 0 4.668-.951 6.57-2.848l14.274-14.277c1.902-1.902 2.847-4.093 2.847-6.566.001-2.476-.944-4.666-2.846-6.569z"/></svg><svg viewBox="-10 -10 510.4 510.4" width="510.4" height="510.4" id="icon_cancel" x="532" xmlns="http://www.w3.org/2000/svg"><path d="M245.2 490.4c135.2 0 245.2-110 245.2-245.2S380.4 0 245.2 0 0 110 0 245.2s110 245.2 245.2 245.2zm0-465.9c121.7 0 220.7 99 220.7 220.7s-99 220.7-220.7 220.7-220.7-99-220.7-220.7 99-220.7 220.7-220.7z"/><path d="M180.3 310.1c2.4 2.4 5.5 3.6 8.7 3.6s6.3-1.2 8.7-3.6l47.6-47.6 47.6 47.6c2.4 2.4 5.5 3.6 8.7 3.6s6.3-1.2 8.7-3.6c4.8-4.8 4.8-12.5 0-17.3l-47.8-47.6 47.6-47.6c4.8-4.8 4.8-12.5 0-17.3s-12.5-4.8-17.3 0l-47.6 47.6-47.6-47.6c-4.8-4.8-12.5-4.8-17.3 0s-4.8 12.5 0 17.3l47.6 47.6-47.6 47.6c-4.8 4.8-4.8 12.5 0 17.3z"/></svg><svg width="65.7" height="65.7" viewBox="-10 -10 65.7 65.7" id="icon_checked" x="844.75" y="532" xmlns="http://www.w3.org/2000/svg"><path d="M20.687 38.332a5.308 5.308 0 01-7.505 0L1.554 26.704A5.306 5.306 0 119.059 19.2l6.928 6.927a1.344 1.344 0 001.896 0L36.642 7.368a5.308 5.308 0 017.505 7.504l-23.46 23.46z"/></svg><svg viewBox="-10 -10 67.97 67.97" width="67.97" height="67.97" id="icon_close" x="776.78" y="532" xmlns="http://www.w3.org/2000/svg"><path d="M28.228 23.986L47.092 5.122a2.998 2.998 0 000-4.242 2.998 2.998 0 00-4.242 0L23.986 19.744 5.121.88a2.998 2.998 0 00-4.242 0 2.998 2.998 0 000 4.242l18.865 18.864L.879 42.85a2.998 2.998 0 104.242 4.241l18.865-18.864L42.85 47.091c.586.586 1.354.879 2.121.879s1.535-.293 2.121-.879a2.998 2.998 0 000-4.242L28.228 23.986z"/></svg><svg viewBox="-10 -10 532 532" width="532" height="532" id="icon_search" xmlns="http://www.w3.org/2000/svg"><path d="M495 466.2L377.2 348.4c29.2-35.6 46.8-81.2 46.8-130.9C424 103.5 331.5 11 217.5 11 103.4 11 11 103.5 11 217.5S103.4 424 217.5 424c49.7 0 95.2-17.5 130.8-46.7L466.1 495c8 8 20.9 8 28.9 0 8-7.9 8-20.9 0-28.8zm-277.5-83.3C126.2 382.9 52 308.7 52 217.5S126.2 52 217.5 52C308.7 52 383 126.3 383 217.5s-74.3 165.4-165.5 165.4z"/></svg></svg>