<?xml version="1.0"?><svg width="1064" height="532" viewBox="0 0 1064 532" xmlns="http://www.w3.org/2000/svg" xmlns:xlink="http://www.w3.org/1999/xlink"><svg width="532" height="532" viewBox="-10 -10 532 532" id="icon_plus_blue" xmlns="http://www.w3.org/2000/svg"><path d="M492 236H276V20c0-11.046-8.954-20-20-20s-20 8.954-20 20v216H20c-11.046 0-20 8.954-20 20s8.954 20 20 20h216v216c0 11.046 8.954 20 20 20s20-8.954 20-20V276h216c11.046 0 20-8.954 20-20s-8.954-20-20-20z" data-original="#000000" class="aactive-path" data-old_color="#000000" fill="#8AC2EA"/></svg><svg width="532" height="532" viewBox="-10 -10 532 532" id="icon_wallet_brown" x="532" xmlns="http://www.w3.org/2000/svg"><path d="M490.667 193.965v-87.298C490.667 83.135 471.531 64 448 64H42.667C19.135 64 0 83.135 0 106.667v298.667C0 428.865 19.135 448 42.667 448H448c23.531 0 42.667-19.135 42.667-42.667v-87.298C503.056 313.617 512 301.888 512 288v-64c0-13.888-8.944-25.617-21.333-30.035zm-21.334 211.368c0 11.76-9.573 21.333-21.333 21.333H42.667c-11.76 0-21.333-9.573-21.333-21.333V106.667c0-11.76 9.573-21.333 21.333-21.333H448c11.76 0 21.333 9.573 21.333 21.333V192h-64c-35.292 0-64 28.708-64 64s28.708 64 64 64h64v85.333zM490.667 288c0 5.885-4.781 10.667-10.667 10.667h-74.667c-23.531 0-42.667-19.135-42.667-42.667s19.135-42.667 42.667-42.667H480c5.885 0 10.667 4.781 10.667 10.667v64z" data-original="#000000" class="bactive-path" data-old_color="#000000" fill="#3B3B3B"/><path d="M405.333 234.667C393.573 234.667 384 244.24 384 256s9.573 21.333 21.333 21.333c11.76 0 21.333-9.573 21.333-21.333s-9.572-21.333-21.333-21.333z" data-original="#000000" class="bactive-path" data-old_color="#000000" fill="#3B3B3B"/></svg></svg>