<?xml version="1.0"?><svg width="1596" height="1563" viewBox="0 0 1596 1563" xmlns="http://www.w3.org/2000/svg" xmlns:xlink="http://www.w3.org/1999/xlink"><svg width="532" height="532" viewBox="-10 -10 611.2 611.2" id="icon_1_square" xmlns="http://www.w3.org/2000/svg"><path d="M532.562.5H58.64C26.582.5.5 26.582.5 58.64v473.921c0 32.059 26.082 58.141 58.14 58.141h473.922c32.058 0 58.14-26.082 58.14-58.141V58.64C590.701 26.582 564.619.5 532.562.5zm15.299 532.061c0 8.449-6.85 15.299-15.3 15.299H58.64c-8.45 0-15.3-6.85-15.3-15.299V58.64c0-8.45 6.85-15.3 15.3-15.3h473.922c8.45 0 15.3 6.85 15.3 15.3v473.921z" data-original="#000000" class="aactive-path" data-old_color="#000000" fill="#C5C5C5"/><path d="M532.562 591.201H58.64c-32.334 0-58.64-26.305-58.64-58.64V58.64C0 26.306 26.306 0 58.64 0h473.922c32.334 0 58.64 26.306 58.64 58.64v473.921c-.001 32.335-26.306 58.64-58.64 58.64zM58.64 1C26.857 1 1 26.857 1 58.64v473.921c0 31.783 25.857 57.641 57.64 57.641h473.922c31.782 0 57.64-25.857 57.64-57.641V58.64c0-31.783-25.857-57.64-57.64-57.64H58.64zm473.922 547.359H58.64c-8.712 0-15.8-7.087-15.8-15.799V58.64c0-8.712 7.088-15.8 15.8-15.8h473.922c8.712 0 15.8 7.088 15.8 15.8v473.921c-.001 8.711-7.089 15.798-15.8 15.798zM58.64 43.84c-8.161 0-14.8 6.639-14.8 14.8v473.921c0 8.16 6.639 14.799 14.8 14.799h473.922c8.161 0 14.8-6.639 14.8-14.799V58.64c0-8.161-6.639-14.8-14.8-14.8H58.64z" data-original="#000000" class="aactive-path" data-old_color="#000000" fill="#C5C5C5"/></svg><svg viewBox="-10 -10 505 505" width="532" height="532" id="icon_2_square" x="532" xmlns="http://www.w3.org/2000/svg"><path d="M0 0v485h485V0H0zm455 30v197.5H30V30h425zM30 455V257.5h425V455H30z" data-original="#000000" class="bactive-path" data-old_color="#000000" fill="#C5C4C4"/></svg><svg width="532" height="532" viewBox="-10 -10 532 532" id="icon_4_square" y="532" xmlns="http://www.w3.org/2000/svg"><path d="M0 0v512h512V0H0zm469.333 234.667h-192v-192h192v192zm-234.666-192v192h-192v-192h192zm-192 234.666h192v192h-192v-192zm234.666 192v-192h192v192h-192z" data-original="#000000" class="cactive-path" data-old_color="#000000" fill="#C5C5C5"/></svg><svg width="532" height="532" viewBox="-10 -10 532 532" id="icon_home" x="532" y="532" xmlns="http://www.w3.org/2000/svg"><path d="M506.555 208.064L263.859 30.367a13.3 13.3 0 00-15.716 0L5.445 208.064c-5.928 4.341-7.216 12.665-2.875 18.593s12.666 7.214 18.593 2.875L256 57.588l234.837 171.943a13.236 13.236 0 007.848 2.57c4.096 0 8.138-1.885 10.744-5.445 4.342-5.927 3.054-14.251-2.874-18.592z" data-original="#000000" class="dactive-path" data-old_color="#000000" fill="#FFF"/><path d="M442.246 232.543c-7.346 0-13.303 5.956-13.303 13.303v211.749H322.521V342.009c0-36.68-29.842-66.52-66.52-66.52s-66.52 29.842-66.52 66.52v115.587H83.058V245.847c0-7.347-5.957-13.303-13.303-13.303s-13.303 5.956-13.303 13.303V470.9c0 7.347 5.957 13.303 13.303 13.303h133.029c6.996 0 12.721-5.405 13.251-12.267.032-.311.052-.651.052-1.036V342.01c0-22.009 17.905-39.914 39.914-39.914s39.914 17.906 39.914 39.914V470.9c0 .383.02.717.052 1.024.524 6.867 6.251 12.279 13.251 12.279h133.029c7.347 0 13.303-5.956 13.303-13.303V245.847c-.001-7.348-5.957-13.304-13.304-13.304z" data-original="#000000" class="dactive-path" data-old_color="#000000" fill="#FFF"/></svg><svg viewBox="-10 -10 498.7 498.7" width="498.7" height="498.7" id="icon_setting" y="1064" xmlns="http://www.w3.org/2000/svg"><path d="M454.2 189.101l-33.6-5.7c-3.5-11.3-8-22.2-13.5-32.6l19.8-27.7c8.4-11.8 7.1-27.9-3.2-38.1l-29.8-29.8c-5.6-5.6-13-8.7-20.9-8.7-6.2 0-12.1 1.9-17.1 5.5l-27.8 19.8c-10.8-5.7-22.1-10.4-33.8-13.9l-5.6-33.2a29.54 29.54 0 00-29.2-24.7h-42.1c-14.5 0-26.8 10.4-29.2 24.7l-5.8 34c-11.2 3.5-22.1 8.1-32.5 13.7l-27.5-19.8c-5-3.6-11-5.5-17.2-5.5-7.9 0-15.4 3.1-20.9 8.7l-29.9 29.8c-10.2 10.2-11.6 26.3-3.2 38.1l20 28.1c-5.5 10.5-9.9 21.4-13.3 32.7l-33.2 5.6a29.54 29.54 0 00-24.7 29.2v42.1c0 14.5 10.4 26.8 24.7 29.2l34 5.8c3.5 11.2 8.1 22.1 13.7 32.5l-19.7 27.4c-8.4 11.8-7.1 27.9 3.2 38.1l29.8 29.8c5.6 5.6 13 8.7 20.9 8.7 6.2 0 12.1-1.9 17.1-5.5l28.1-20c10.1 5.3 20.7 9.6 31.6 13l5.6 33.6a29.54 29.54 0 0029.2 24.7h42.2c14.5 0 26.8-10.4 29.2-24.7l5.7-33.6c11.3-3.5 22.2-8 32.6-13.5l27.7 19.8c5 3.6 11 5.5 17.2 5.5 7.9 0 15.3-3.1 20.9-8.7l29.8-29.8c10.2-10.2 11.6-26.3 3.2-38.1l-19.8-27.8c5.5-10.5 10.1-21.4 13.5-32.6l33.6-5.6a29.54 29.54 0 0024.7-29.2v-42.1c.2-14.5-10.2-26.8-24.5-29.2zm-2.3 71.3c0 1.3-.9 2.4-2.2 2.6l-42 7c-5.3.9-9.5 4.8-10.8 9.9-3.8 14.7-9.6 28.8-17.4 41.9-2.7 4.6-2.5 10.3.6 14.7l24.7 34.8c.7 1 .6 2.5-.3 3.4l-29.8 29.8c-.7.7-1.4.8-1.9.8-.6 0-1.1-.2-1.5-.5l-34.7-24.7c-4.3-3.1-10.1-3.3-14.7-.6-13.1 7.8-27.2 13.6-41.9 17.4-5.2 1.3-9.1 5.6-9.9 10.8l-7.1 42c-.2 1.3-1.3 2.2-2.6 2.2h-42.1c-1.3 0-2.4-.9-2.6-2.2l-7-42c-.9-5.3-4.8-9.5-9.9-10.8-14.3-3.7-28.1-9.4-41-16.8-2.1-1.2-4.5-1.8-6.8-1.8-2.7 0-5.5.8-7.8 2.5l-35 24.9c-.5.3-1 .5-1.5.5-.4 0-1.2-.1-1.9-.8l-29.8-29.8c-.9-.9-1-2.3-.3-3.4l24.6-34.5c3.1-4.4 3.3-10.2.6-14.8-7.8-13-13.8-27.1-17.6-41.8-1.4-5.1-5.6-9-10.8-9.9l-42.3-7.2c-1.3-.2-2.2-1.3-2.2-2.6v-42.1c0-1.3.9-2.4 2.2-2.6l41.7-7c5.3-.9 9.6-4.8 10.9-10 3.7-14.7 9.4-28.9 17.1-42 2.7-4.6 2.4-10.3-.7-14.6l-24.9-35c-.7-1-.6-2.5.3-3.4l29.8-29.8c.7-.7 1.4-.8 1.9-.8.6 0 1.1.2 1.5.5l34.5 24.6c4.4 3.1 10.2 3.3 14.8.6 13-7.8 27.1-13.8 41.8-17.6 5.1-1.4 9-5.6 9.9-10.8l7.2-42.3c.2-1.3 1.3-2.2 2.6-2.2h42.1c1.3 0 2.4.9 2.6 2.2l7 41.7c.9 5.3 4.8 9.6 10 10.9 15.1 3.8 29.5 9.7 42.9 17.6 4.6 2.7 10.3 2.5 14.7-.6l34.5-24.8c.5-.3 1-.5 1.5-.5.4 0 1.2.1 1.9.8l29.8 29.8c.9.9 1 2.3.3 3.4l-24.7 34.7c-3.1 4.3-3.3 10.1-.6 14.7 7.8 13.1 13.6 27.2 17.4 41.9 1.3 5.2 5.6 9.1 10.8 9.9l42 7.1c1.3.2 2.2 1.3 2.2 2.6v42.1h-.1z"/><path d="M239.4 136.001c-57 0-103.3 46.3-103.3 103.3s46.3 103.3 103.3 103.3 103.3-46.3 103.3-103.3-46.3-103.3-103.3-103.3zm0 179.6c-42.1 0-76.3-34.2-76.3-76.3s34.2-76.3 76.3-76.3 76.3 34.2 76.3 76.3-34.2 76.3-76.3 76.3z"/></svg><svg viewBox="-10 -10 509.4 509.4" width="509.4" height="509.4" id="icon_shop" x="1064" y="532" xmlns="http://www.w3.org/2000/svg"><path d="M347.7 263.75h-66.5c-18.2 0-33 14.8-33 33v51c0 18.2 14.8 33 33 33h66.5c18.2 0 33-14.8 33-33v-51c0-18.2-14.8-33-33-33zm9 84c0 5-4.1 9-9 9h-66.5c-5 0-9-4.1-9-9v-51c0-5 4.1-9 9-9h66.5c5 0 9 4.1 9 9v51z"/><path d="M489.4 171.05c0-2.1-.5-4.1-1.6-5.9l-72.8-128c-2.1-3.7-6.1-6.1-10.4-6.1H84.7c-4.3 0-8.3 2.3-10.4 6.1l-72.7 128c-1 1.8-1.6 3.8-1.6 5.9 0 28.7 17.3 53.3 42 64.2v211.1c0 6.6 5.4 12 12 12h381.3c6.6 0 12-5.4 12-12v-209.6c0-.5 0-.9-.1-1.3 24.8-10.9 42.2-35.6 42.2-64.4zM91.7 55.15h305.9l56.9 100.1H34.9l56.8-100.1zm256.6 124c-3.8 21.6-22.7 38-45.4 38s-41.6-16.4-45.4-38h90.8zm-116.3 0c-3.8 21.6-22.7 38-45.4 38s-41.6-16.4-45.5-38H232zm-207.2 0h90.9c-3.8 21.6-22.8 38-45.5 38-22.7.1-41.6-16.4-45.4-38zm176.8 255.2h-69v-129.5c0-9.4 7.6-17.1 17.1-17.1h34.9c9.4 0 17.1 7.6 17.1 17.1v129.5h-.1zm221.7 0H225.6v-129.5c0-22.6-18.4-41.1-41.1-41.1h-34.9c-22.6 0-41.1 18.4-41.1 41.1v129.6H66v-193.3c1.4.1 2.8.1 4.2.1 24.2 0 45.6-12.3 58.2-31 12.6 18.7 34 31 58.2 31s45.5-12.3 58.2-31c12.6 18.7 34 31 58.1 31 24.2 0 45.5-12.3 58.1-31 12.6 18.7 34 31 58.2 31 1.4 0 2.7-.1 4.1-.1v193.2zm-4.1-217.1c-22.7 0-41.6-16.4-45.4-38h90.9c-3.9 21.5-22.8 38-45.5 38z"/></svg><svg viewBox="-10 -10 532 532" width="532" height="532" id="icon_user" x="1064" xmlns="http://www.w3.org/2000/svg"><path d="M437.02 330.98c-27.883-27.882-61.071-48.523-97.281-61.018C378.521 243.251 404 198.548 404 148 404 66.393 337.607 0 256 0S108 66.393 108 148c0 50.548 25.479 95.251 64.262 121.962-36.21 12.495-69.398 33.136-97.281 61.018C26.629 379.333 0 443.62 0 512h40c0-119.103 96.897-216 216-216s216 96.897 216 216h40c0-68.38-26.629-132.667-74.98-181.02zM256 256c-59.551 0-108-48.448-108-108S196.449 40 256 40s108 48.448 108 108-48.449 108-108 108z"/></svg></svg>