<?xml version="1.0"?><svg width="2128" height="2128" viewBox="0 0 2128 2128" xmlns="http://www.w3.org/2000/svg" xmlns:xlink="http://www.w3.org/1999/xlink"><svg height="532" viewBox="-10 -10 148 148" width="532" data-name="Layer 1" id="icon_bedroom" x="532" xmlns="http://www.w3.org/2000/svg"><path d="M114.745 79.531c0-.006 0-.021-.005-.027l-10.92-19.861V31.674a4.864 4.864 0 00-1.184-3.16 4.862 4.862 0 001.184-3.16 4.91 4.91 0 10-9.82 0 4.862 4.862 0 001.184 3.16 4.856 4.856 0 00-1.107 2.4A101.774 101.774 0 0064 26.764a101.774 101.774 0 00-30.077 4.153 4.856 4.856 0 00-1.107-2.4A4.862 4.862 0 0034 25.354a4.91 4.91 0 00-9.82 0 4.862 4.862 0 001.184 3.16 4.864 4.864 0 00-1.184 3.16v27.969L13.26 79.5a.31.31 0 00-.01.036 1.737 1.737 0 00-.206.808V98.1a1.751 1.751 0 001.75 1.75h5.532v5.958a1.75 1.75 0 001.75 1.75h7.708a1.751 1.751 0 001.75-1.75v-5.96h64.932v5.958a1.751 1.751 0 001.75 1.75h7.708a1.75 1.75 0 001.75-1.75v-5.958h5.532a1.751 1.751 0 001.75-1.75v-17.75a1.735 1.735 0 00-.211-.817zM97.5 48.148V31.674a1.41 1.41 0 012.82 0v21.6zm1.41-24.2a1.41 1.41 0 11-1.41 1.41 1.412 1.412 0 011.41-1.414zM94 34.582v12.266h-3.77v-.054c0-5.071-5.14-9.2-11.458-9.2s-11.459 4.125-11.459 9.2c0 .019 0 .035.005.054h-6.64c0-.019.005-.035.005-.054 0-5.071-5.141-9.2-11.459-9.2s-11.458 4.125-11.458 9.2v.054H34V34.582c3.357-1.129 14.24-4.318 30-4.318s26.643 3.189 30 4.318zM71.029 47.9a2.474 2.474 0 01-.211-1.1c0-3.141 3.571-5.7 7.959-5.7s7.958 2.555 7.958 5.7c0 1.479-.615 3.057-7.958 3.057-5.507-.006-7.231-.893-7.748-1.957zm-29.763-1.1c0-3.141 3.57-5.7 7.958-5.7s7.959 2.555 7.959 5.7c0 1.479-.615 3.057-7.959 3.057s-7.958-1.584-7.958-3.063zM29.09 23.944a1.41 1.41 0 11-1.41 1.41 1.412 1.412 0 011.41-1.41zm-1.41 7.73a1.41 1.41 0 012.82 0v16.474l-2.82 5.129zm5.6 18.674h5.62c2.33 2.99 7.682 3 10.321 3s7.991-.013 10.322-3h8.908c2.331 2.99 7.683 3 10.322 3s7.991-.013 10.321-3h5.618L110.247 78.6H17.753zm-5.251 53.708h-4.203v-4.208h4.208zm76.14 0h-4.203v-4.208h4.208zm7.282-7.708H16.544V82.1h94.912z" data-original="#000000" class="aactive-path" data-old_color="#000000" fill="#CCC"/></svg><svg height="532" viewBox="-10 -10 148 148" width="532" data-name="Layer 1" id="icon_bedroom_selected" x="532" y="1064" xmlns="http://www.w3.org/2000/svg"><path d="M114.745 79.531c0-.006 0-.021-.005-.027l-10.92-19.861V31.674a4.864 4.864 0 00-1.184-3.16 4.862 4.862 0 001.184-3.16 4.91 4.91 0 10-9.82 0 4.862 4.862 0 001.184 3.16 4.856 4.856 0 00-1.107 2.4A101.774 101.774 0 0064 26.764a101.774 101.774 0 00-30.077 4.153 4.856 4.856 0 00-1.107-2.4A4.862 4.862 0 0034 25.354a4.91 4.91 0 00-9.82 0 4.862 4.862 0 001.184 3.16 4.864 4.864 0 00-1.184 3.16v27.969L13.26 79.5a.31.31 0 00-.01.036 1.737 1.737 0 00-.206.808V98.1a1.751 1.751 0 001.75 1.75h5.532v5.958a1.75 1.75 0 001.75 1.75h7.708a1.751 1.751 0 001.75-1.75v-5.96h64.932v5.958a1.751 1.751 0 001.75 1.75h7.708a1.75 1.75 0 001.75-1.75v-5.958h5.532a1.751 1.751 0 001.75-1.75v-17.75a1.735 1.735 0 00-.211-.817zM97.5 48.148V31.674a1.41 1.41 0 012.82 0v21.6zm1.41-24.2a1.41 1.41 0 11-1.41 1.41 1.412 1.412 0 011.41-1.414zM94 34.582v12.266h-3.77v-.054c0-5.071-5.14-9.2-11.458-9.2s-11.459 4.125-11.459 9.2c0 .019 0 .035.005.054h-6.64c0-.019.005-.035.005-.054 0-5.071-5.141-9.2-11.459-9.2s-11.458 4.125-11.458 9.2v.054H34V34.582c3.357-1.129 14.24-4.318 30-4.318s26.643 3.189 30 4.318zM71.029 47.9a2.474 2.474 0 01-.211-1.1c0-3.141 3.571-5.7 7.959-5.7s7.958 2.555 7.958 5.7c0 1.479-.615 3.057-7.958 3.057-5.507-.006-7.231-.893-7.748-1.957zm-29.763-1.1c0-3.141 3.57-5.7 7.958-5.7s7.959 2.555 7.959 5.7c0 1.479-.615 3.057-7.959 3.057s-7.958-1.584-7.958-3.063zM29.09 23.944a1.41 1.41 0 11-1.41 1.41 1.412 1.412 0 011.41-1.41zm-1.41 7.73a1.41 1.41 0 012.82 0v16.474l-2.82 5.129zm5.6 18.674h5.62c2.33 2.99 7.682 3 10.321 3s7.991-.013 10.322-3h8.908c2.331 2.99 7.683 3 10.322 3s7.991-.013 10.321-3h5.618L110.247 78.6H17.753zm-5.251 53.708h-4.203v-4.208h4.208zm76.14 0h-4.203v-4.208h4.208zm7.282-7.708H16.544V82.1h94.912z" data-original="#000000" class="bactive-path" data-old_color="#000000" fill="#666"/></svg><svg height="532" width="532" viewBox="-10 -10 532 532" id="icon_building" y="532" xmlns="http://www.w3.org/2000/svg"><path d="M512 199.453v-30.07h-22.281v-60.145h-41.055L256 0 63.336 109.238H22.28v60.145H0v30.07h51.676l-8.809 222.332H22.281v60.145H0V512h512v-30.07h-22.281v-60.145h-26.203l-8.809-222.332zM256 34.547l131.734 74.691H124.266zM52.281 139.309H459.72v30.074H52.28zm150.633 282.476H149.04l-8.809-222.332h71.493zm38.832-222.332h28.508l8.809 222.332h-46.125zm58.531 0h65.875l-8.808 222.332h-48.258zm-218.578 0h28.508l8.809 222.332H72.89zM52.281 481.93v-30.075H459.72v30.075zm381.211-60.145h-46.125l8.809-222.332h28.508zm0 0" data-original="#000000" class="cactive-path" data-old_color="#000000" fill="#CCC"/></svg><svg height="532" width="532" viewBox="-10 -10 532 532" id="icon_building_selected" x="532" y="532" xmlns="http://www.w3.org/2000/svg"><path d="M512 199.453v-30.07h-22.281v-60.145h-41.055L256 0 63.336 109.238H22.28v60.145H0v30.07h51.676l-8.809 222.332H22.281v60.145H0V512h512v-30.07h-22.281v-60.145h-26.203l-8.809-222.332zM256 34.547l131.734 74.691H124.266zM52.281 139.309H459.72v30.074H52.28zm150.633 282.476H149.04l-8.809-222.332h71.493zm38.832-222.332h28.508l8.809 222.332h-46.125zm58.531 0h65.875l-8.808 222.332h-48.258zm-218.578 0h28.508l8.809 222.332H72.89zM52.281 481.93v-30.075H459.72v30.075zm381.211-60.145h-46.125l8.809-222.332h28.508zm0 0" data-original="#000000" class="dactive-path" data-old_color="#000000" fill="#666"/></svg><svg width="532" height="532" viewBox="-10 -10 532 532" id="icon_card" x="1064" xmlns="http://www.w3.org/2000/svg"><path d="M458.667 85.333H53.333C23.936 85.333 0 109.269 0 138.667v234.667c0 29.397 23.936 53.333 53.333 53.333h405.333c29.397 0 53.333-23.936 53.333-53.333V138.667c.001-29.398-23.935-53.334-53.332-53.334zm32 288c0 17.643-14.357 32-32 32H53.333c-17.643 0-32-14.357-32-32V138.667c0-17.643 14.357-32 32-32h405.333c17.643 0 32 14.357 32 32v234.666z" data-original="#000000" class="eactive-path" data-old_color="#000000" fill="#DE8F90"/><path d="M501.333 149.333H10.667C4.779 149.333 0 154.112 0 160v64c0 5.888 4.779 10.667 10.667 10.667h490.667c5.888 0 10.667-4.779 10.667-10.667v-64c-.001-5.888-4.78-10.667-10.668-10.667zm-10.666 64H21.333v-42.667h469.333v42.667zM202.667 298.667h-128c-5.888 0-10.667 4.779-10.667 10.667S68.779 320 74.667 320h128c5.888 0 10.667-4.779 10.667-10.667s-4.779-10.666-10.667-10.666zM202.667 341.333h-128C68.779 341.333 64 346.112 64 352s4.779 10.667 10.667 10.667h128c5.888 0 10.667-4.779 10.667-10.667-.001-5.888-4.779-10.667-10.667-10.667zM416 277.333h-21.333c-17.643 0-32 14.357-32 32v21.333c0 17.643 14.357 32 32 32H416c17.643 0 32-14.357 32-32v-21.333c0-17.642-14.357-32-32-32zm10.667 53.334c0 5.888-4.779 10.667-10.667 10.667h-21.333c-5.888 0-10.667-4.779-10.667-10.667v-21.333c0-5.888 4.779-10.667 10.667-10.667H416c5.888 0 10.667 4.779 10.667 10.667v21.333z" data-original="#000000" class="eactive-path" data-old_color="#000000" fill="#DE8F90"/></svg><svg width="532" height="532" viewBox="-10 -10 532 532" id="icon_card_selected" x="1064" y="532" xmlns="http://www.w3.org/2000/svg"><path d="M458.667 85.333H53.333C23.936 85.333 0 109.269 0 138.667v234.667c0 29.397 23.936 53.333 53.333 53.333h405.333c29.397 0 53.333-23.936 53.333-53.333V138.667c.001-29.398-23.935-53.334-53.332-53.334zm32 288c0 17.643-14.357 32-32 32H53.333c-17.643 0-32-14.357-32-32V138.667c0-17.643 14.357-32 32-32h405.333c17.643 0 32 14.357 32 32v234.666z" data-original="#000000" class="factive-path" data-old_color="#000000" fill="#D57273"/><path d="M501.333 149.333H10.667C4.779 149.333 0 154.112 0 160v64c0 5.888 4.779 10.667 10.667 10.667h490.667c5.888 0 10.667-4.779 10.667-10.667v-64c-.001-5.888-4.78-10.667-10.668-10.667zm-10.666 64H21.333v-42.667h469.333v42.667zM202.667 298.667h-128c-5.888 0-10.667 4.779-10.667 10.667S68.779 320 74.667 320h128c5.888 0 10.667-4.779 10.667-10.667s-4.779-10.666-10.667-10.666zM202.667 341.333h-128C68.779 341.333 64 346.112 64 352s4.779 10.667 10.667 10.667h128c5.888 0 10.667-4.779 10.667-10.667-.001-5.888-4.779-10.667-10.667-10.667zM416 277.333h-21.333c-17.643 0-32 14.357-32 32v21.333c0 17.643 14.357 32 32 32H416c17.643 0 32-14.357 32-32v-21.333c0-17.642-14.357-32-32-32zm10.667 53.334c0 5.888-4.779 10.667-10.667 10.667h-21.333c-5.888 0-10.667-4.779-10.667-10.667v-21.333c0-5.888 4.779-10.667 10.667-10.667H416c5.888 0 10.667 4.779 10.667 10.667v21.333z" data-original="#000000" class="factive-path" data-old_color="#000000" fill="#D57273"/></svg><svg viewBox="-10 -10 532 532" width="532" height="532" id="icon_delete" y="1064" xmlns="http://www.w3.org/2000/svg"><path d="M493.224 96.395H147.092a18.785 18.785 0 00-13.883 6.128L4.896 243.354c-6.528 7.167-6.528 18.12 0 25.293l128.313 140.831a18.783 18.783 0 0013.883 6.128h346.132c10.371 0 18.777-8.406 18.777-18.771V115.173c.001-10.372-8.406-18.778-18.777-18.778zm-18.777 281.656H155.385l-111.2-122.054 111.2-122.054h319.061v244.108z" data-original="#000000" class="gactive-path" data-old_color="#000000" fill="#E2797D"/><path d="M396.263 191.315c-7.386-7.286-19.266-7.217-26.558.163l-101.399 102.65c-7.286 7.38-7.217 19.266.163 26.558a18.722 18.722 0 0013.194 5.414c4.838 0 9.689-1.865 13.363-5.577l101.399-102.65c7.287-7.38 7.218-19.266-.162-26.558z" data-original="#000000" class="gactive-path" data-old_color="#000000" fill="#E2797D"/><path d="M396.889 293.334L294.245 191.941c-7.38-7.286-19.272-7.211-26.551.163-7.292 7.38-7.223 19.266.156 26.558L370.494 320.06a18.722 18.722 0 0013.194 5.414 18.72 18.72 0 0013.357-5.583c7.293-7.379 7.224-19.266-.156-26.557z" data-original="#000000" class="gactive-path" data-old_color="#000000" fill="#E2797D"/></svg><svg viewBox="-10 -10 435.14 435.14" width="532" height="532" id="icon_fork_knife" xmlns="http://www.w3.org/2000/svg"><path d="M322.572.644c-2.7-1.2-5.9-.7-8.1 1.3-43.2 39.1-71.1 93.3-71.1 138.1v117.5c0 4.1 3.4 7.5 7.5 7.5h18.4v142.5c0 4.1 3.4 7.5 7.5 7.5h42.7c4.1 0 7.5-3.4 7.6-7.5v-400c0-3-1.8-5.7-4.5-6.9zm-10.6 399.4h-27.7v-135h27.7v135zm0-150h-53.6v-110c0-35.7 21.1-80 53.6-114.6v224.6zM180.972.044c-4.1 0-7.5 3.4-7.5 7.5v100h-27.7v-100c0-4.1-3.4-7.5-7.5-7.5s-7.5 3.4-7.5 7.5v100h-27.7v-100c0-4.1-3.4-7.5-7.5-7.5s-7.5 3.4-7.5 7.5v132.5c0 20.7 18.6 37.8 42.7 40.8v69.2h-16.8v141.3c0 13.3 10.1 23.8 23 23.8h2.6c12.9 0 23-10.4 23-23.8v-141.3h-16.8v-69.2c24.2-3 42.7-20.1 42.7-40.8V7.544c0-4.1-3.4-7.5-7.5-7.5zm-33.3 265v126.3h-.1c0 4.2-2.8 8.8-8 8.8h-2.6c-5.2 0-8-4.5-8-8.8v-126.3h18.7zm25.9-125h-.1c0 14.2-16.1 26.2-35.2 26.2s-35.2-12-35.2-26.2v-17.5h70.5v17.5z" data-original="#000000" class="hactive-path" data-old_color="#000000" fill="#CCC"/></svg><svg viewBox="-10 -10 435.14 435.14" width="532" height="532" id="icon_fork_knife_selected" x="1064" y="1064" xmlns="http://www.w3.org/2000/svg"><path d="M322.572.644c-2.7-1.2-5.9-.7-8.1 1.3-43.2 39.1-71.1 93.3-71.1 138.1v117.5c0 4.1 3.4 7.5 7.5 7.5h18.4v142.5c0 4.1 3.4 7.5 7.5 7.5h42.7c4.1 0 7.5-3.4 7.6-7.5v-400c0-3-1.8-5.7-4.5-6.9zm-10.6 399.4h-27.7v-135h27.7v135zm0-150h-53.6v-110c0-35.7 21.1-80 53.6-114.6v224.6zM180.972.044c-4.1 0-7.5 3.4-7.5 7.5v100h-27.7v-100c0-4.1-3.4-7.5-7.5-7.5s-7.5 3.4-7.5 7.5v100h-27.7v-100c0-4.1-3.4-7.5-7.5-7.5s-7.5 3.4-7.5 7.5v132.5c0 20.7 18.6 37.8 42.7 40.8v69.2h-16.8v141.3c0 13.3 10.1 23.8 23 23.8h2.6c12.9 0 23-10.4 23-23.8v-141.3h-16.8v-69.2c24.2-3 42.7-20.1 42.7-40.8V7.544c0-4.1-3.4-7.5-7.5-7.5zm-33.3 265v126.3h-.1c0 4.2-2.8 8.8-8 8.8h-2.6c-5.2 0-8-4.5-8-8.8v-126.3h18.7zm25.9-125h-.1c0 14.2-16.1 26.2-35.2 26.2s-35.2-12-35.2-26.2v-17.5h70.5v17.5z" data-original="#000000" class="iactive-path" data-old_color="#000000" fill="#666"/></svg><svg viewBox="-10 -10 504 504" width="532" height="532" id="icon_money" x="1596" xmlns="http://www.w3.org/2000/svg"><path d="M212 106.7c-57.1 0-103.4 46.3-103.4 103.4 0 57.1 46.2 103.5 103.4 103.5s103.4-46.3 103.4-103.5c-.1-57.1-46.3-103.3-103.4-103.4zm0 186.9c-46.1 0-83.4-37.4-83.4-83.4s37.4-83.4 83.4-83.4 83.4 37.4 83.4 83.4-37.4 83.3-83.4 83.4z" data-original="#000000" class="jactive-path" data-old_color="#000000" fill="#DE8F90"/><path d="M444.9 144H424v-24.4C424 98 406.4 80 384.9 80H39.1C17.6 80 0 98 0 119.6v181c0 21.6 17.5 39.2 39.1 39.4H60v24.4C60 386 77.6 404 99.1 404h345.8c21.5 0 39.1-18 39.1-39.6v-181c0-21.7-17.5-39.3-39.1-39.4zM39.1 320c-10.6-.1-19.1-8.8-19.1-19.4v-181C20 109 28.6 100 39.1 100h345.8c10.5 0 19.1 9 19.1 19.6v181c0 10.6-8.5 19.2-19.1 19.4H39.1zM464 364.4c0 10.6-8.6 19.6-19.1 19.6H99.1c-10.5 0-19.1-9-19.1-19.6V340h304.9c21.6-.1 39.1-17.7 39.1-39.4V164h20.9c10.6.1 19.1 8.8 19.1 19.4v181z" data-original="#000000" class="jactive-path" data-old_color="#000000" fill="#DE8F90"/><path d="M62.6 110.6c-17.1 0-31 13.9-31 31s13.9 31 31 31 31-13.9 31-31-13.9-31-31-31zm0 41.9c-6.1 0-11-4.9-11-11s4.9-11 11-11 11 4.9 11 11-4.9 11-11 11zM361.3 246.8c-17.1 0-31 13.9-31 31s13.9 31 31 31 31-13.9 31-31-13.9-30.9-31-31zm0 42c-6.1 0-11-4.9-11-11s4.9-11 11-11 11 4.9 11 11c0 6-4.9 10.9-11 11zM247.6 225.1c-4.1-16.3-18.7-27.7-35.5-27.7-9.1.1-16.6-7.2-16.7-16.3-.1-9.1 7.2-16.6 16.3-16.7h.3c9.1 0 16.5 7.4 16.5 16.5 0 5.5 4.5 10 10 10 5.6 0 10.1-4.4 10.2-10 .1-16.8-11.4-31.5-27.7-35.5v-3c0-5.5-4.5-10-10-10s-10 4.5-10 10v3.8c-19.2 6.2-29.7 26.7-23.6 45.9 4.8 15.1 18.8 25.3 34.7 25.3 9.1.1 16.5 7.5 16.4 16.6-.1 9.1-7.5 16.5-16.6 16.4-9.1-.1-16.4-7.4-16.4-16.5 0-5.5-4.5-10-10-10-5.4 0-9.8 4.4-9.8 9.8v.2c-.1 15.9 10.2 29.9 25.3 34.7v4.8c0 5.5 4.5 10 10 10s10-4.5 10-10v-4c19.6-4.9 31.5-24.7 26.6-44.3z" data-original="#000000" class="jactive-path" data-old_color="#000000" fill="#DE8F90"/></svg><svg viewBox="-10 -10 504 504" width="532" height="532" id="icon_money_selected" x="1596" y="532" xmlns="http://www.w3.org/2000/svg"><path d="M212 106.7c-57.1 0-103.4 46.3-103.4 103.4 0 57.1 46.2 103.5 103.4 103.5s103.4-46.3 103.4-103.5c-.1-57.1-46.3-103.3-103.4-103.4zm0 186.9c-46.1 0-83.4-37.4-83.4-83.4s37.4-83.4 83.4-83.4 83.4 37.4 83.4 83.4-37.4 83.3-83.4 83.4z" data-original="#000000" class="kactive-path" data-old_color="#000000" fill="#D47273"/><path d="M444.9 144H424v-24.4C424 98 406.4 80 384.9 80H39.1C17.6 80 0 98 0 119.6v181c0 21.6 17.5 39.2 39.1 39.4H60v24.4C60 386 77.6 404 99.1 404h345.8c21.5 0 39.1-18 39.1-39.6v-181c0-21.7-17.5-39.3-39.1-39.4zM39.1 320c-10.6-.1-19.1-8.8-19.1-19.4v-181C20 109 28.6 100 39.1 100h345.8c10.5 0 19.1 9 19.1 19.6v181c0 10.6-8.5 19.2-19.1 19.4H39.1zM464 364.4c0 10.6-8.6 19.6-19.1 19.6H99.1c-10.5 0-19.1-9-19.1-19.6V340h304.9c21.6-.1 39.1-17.7 39.1-39.4V164h20.9c10.6.1 19.1 8.8 19.1 19.4v181z" data-original="#000000" class="kactive-path" data-old_color="#000000" fill="#D47273"/><path d="M62.6 110.6c-17.1 0-31 13.9-31 31s13.9 31 31 31 31-13.9 31-31-13.9-31-31-31zm0 41.9c-6.1 0-11-4.9-11-11s4.9-11 11-11 11 4.9 11 11-4.9 11-11 11zM361.3 246.8c-17.1 0-31 13.9-31 31s13.9 31 31 31 31-13.9 31-31-13.9-30.9-31-31zm0 42c-6.1 0-11-4.9-11-11s4.9-11 11-11 11 4.9 11 11c0 6-4.9 10.9-11 11zM247.6 225.1c-4.1-16.3-18.7-27.7-35.5-27.7-9.1.1-16.6-7.2-16.7-16.3-.1-9.1 7.2-16.6 16.3-16.7h.3c9.1 0 16.5 7.4 16.5 16.5 0 5.5 4.5 10 10 10 5.6 0 10.1-4.4 10.2-10 .1-16.8-11.4-31.5-27.7-35.5v-3c0-5.5-4.5-10-10-10s-10 4.5-10 10v3.8c-19.2 6.2-29.7 26.7-23.6 45.9 4.8 15.1 18.8 25.3 34.7 25.3 9.1.1 16.5 7.5 16.4 16.6-.1 9.1-7.5 16.5-16.6 16.4-9.1-.1-16.4-7.4-16.4-16.5 0-5.5-4.5-10-10-10-5.4 0-9.8 4.4-9.8 9.8v.2c-.1 15.9 10.2 29.9 25.3 34.7v4.8c0 5.5 4.5 10 10 10s10-4.5 10-10v-4c19.6-4.9 31.5-24.7 26.6-44.3z" data-original="#000000" class="kactive-path" data-old_color="#000000" fill="#D47273"/></svg><svg viewBox="-10 -10 509 509" width="532" height="532" id="icon_shopping_bag" x="1596" y="1064" xmlns="http://www.w3.org/2000/svg"><path d="M440.1 422.7l-28-315.3c-.6-7-6.5-12.3-13.4-12.3h-57.6C340.3 42.5 297.3 0 244.5 0s-95.8 42.5-96.6 95.1H90.3c-7 0-12.8 5.3-13.4 12.3l-28 315.3c0 .4-.1.8-.1 1.2 0 35.9 32.9 65.1 73.4 65.1h244.6c40.5 0 73.4-29.2 73.4-65.1 0-.4 0-.8-.1-1.2zM244.5 27c37.9 0 68.8 30.4 69.6 68.1H174.9c.8-37.7 31.7-68.1 69.6-68.1zm122.3 435H122.2c-25.4 0-46-16.8-46.4-37.5l26.8-302.3h45.2v41c0 7.5 6 13.5 13.5 13.5s13.5-6 13.5-13.5v-41h139.3v41c0 7.5 6 13.5 13.5 13.5s13.5-6 13.5-13.5v-41h45.2l26.9 302.3c-.4 20.7-21.1 37.5-46.4 37.5z" data-original="#000000" class="lactive-path" data-old_color="#000000" fill="#CCC"/></svg><svg viewBox="-10 -10 509 509" width="532" height="532" id="icon_shopping_bag_selected" y="1596" xmlns="http://www.w3.org/2000/svg"><path d="M440.1 422.7l-28-315.3c-.6-7-6.5-12.3-13.4-12.3h-57.6C340.3 42.5 297.3 0 244.5 0s-95.8 42.5-96.6 95.1H90.3c-7 0-12.8 5.3-13.4 12.3l-28 315.3c0 .4-.1.8-.1 1.2 0 35.9 32.9 65.1 73.4 65.1h244.6c40.5 0 73.4-29.2 73.4-65.1 0-.4 0-.8-.1-1.2zM244.5 27c37.9 0 68.8 30.4 69.6 68.1H174.9c.8-37.7 31.7-68.1 69.6-68.1zm122.3 435H122.2c-25.4 0-46-16.8-46.4-37.5l26.8-302.3h45.2v41c0 7.5 6 13.5 13.5 13.5s13.5-6 13.5-13.5v-41h139.3v41c0 7.5 6 13.5 13.5 13.5s13.5-6 13.5-13.5v-41h45.2l26.9 302.3c-.4 20.7-21.1 37.5-46.4 37.5z" data-original="#000000" class="mactive-path" data-old_color="#000000" fill="#666"/></svg><svg viewBox="-10 -10 532 532" width="532" height="532" id="icon_train" x="532" y="1596" xmlns="http://www.w3.org/2000/svg"><path d="M156.602 49.698h-24.85c-4.142 0-7.5 3.357-7.5 7.5s3.358 7.5 7.5 7.5h24.85c4.142 0 7.5-3.357 7.5-7.5s-3.358-7.5-7.5-7.5zM380.254 49.699h-24.851c-4.143 0-7.5 3.357-7.5 7.5s3.357 7.5 7.5 7.5h24.851c4.142 0 7.5-3.357 7.5-7.5s-3.357-7.5-7.5-7.5z" data-original="#000000" class="nactive-path" data-old_color="#000000" fill="#CCCCCCCC"/><path d="M388.536 16.564h-61.632l-6.21-12.419A7.5 7.5 0 00313.986 0H198.021a7.499 7.499 0 00-6.708 4.146l-6.21 12.419h-61.634c-22.406 0-40.634 18.229-40.634 40.634V388.53c0 22.405 18.228 40.633 40.634 40.633h33.135c.822 0 1.611-.137 2.352-.382L116.99 500.72a7.501 7.501 0 006.472 11.28 7.497 7.497 0 006.485-3.722l55.814-95.68h15.769l-51.405 88.121a7.5 7.5 0 0012.956 7.558l12.325-21.129 161.193-.001 12.322 21.125a7.497 7.497 0 0010.257 2.7 7.501 7.501 0 002.699-10.258L310.481 412.6h15.765l55.81 95.68a7.495 7.495 0 0010.257 2.7 7.501 7.501 0 002.699-10.258l-41.963-71.94c.741.245 1.53.382 2.352.382h33.133c22.405 0 40.633-18.228 40.633-40.633V57.198c.002-22.405-18.226-40.634-40.631-40.634zm-191.299 9.272L202.656 15h45.846v9.064a7.5 7.5 0 007.5 7.5c4.143 0 7.5-3.357 7.5-7.5V15h45.85l5.418 10.835v23.863H197.237V25.836zm-33.133 394.12V412.6h4.291l-4.291 7.356zm153.169 34.059l10.578 18.134-143.693.001 10.578-18.134 122.537-.001zm-113.787-14.998l15.41-26.417h74.218l15.41 26.416-105.038.001zm144.417-19.061l-4.291-7.356h4.291v7.356zm66.266-31.425c0 14.133-11.5 25.632-25.633 25.632h-25.633V405.1c0-4.143-3.357-7.5-7.5-7.5H297.53c-.141-.002-.282-.006-.424 0H156.604a7.5 7.5 0 00-7.5 7.5v9.063h-25.635c-14.135 0-25.634-11.499-25.634-25.633v-9.066l108.467.002a7.498 7.498 0 006.24-3.34l14.34-21.51h58.239l14.341 21.51a7.498 7.498 0 006.24 3.34h108.467v9.065zm0-24.065H309.715l-14.341-21.51a7.498 7.498 0 00-6.24-3.34h-66.266a7.497 7.497 0 00-6.24 3.34l-14.34 21.51-104.454-.002v-67.832h316.335v67.834zm0-82.834H97.835V97.833h316.334v183.799zm0-198.799H97.835V57.198c0-14.135 11.499-25.634 25.633-25.634h58.769v25.634a7.5 7.5 0 007.5 7.5h132.532c4.143 0 7.5-3.357 7.5-7.5V31.564h58.767c14.134 0 25.633 11.499 25.633 25.634v25.635z" data-original="#000000" class="nactive-path" data-old_color="#000000" fill="#CCCCCCCC"/><path d="M396.819 107.683H115.186a7.5 7.5 0 00-7.5 7.5v149.101a7.5 7.5 0 007.5 7.5h281.633c4.143 0 7.5-3.357 7.5-7.5V115.183c0-4.143-3.357-7.5-7.5-7.5zm-7.5 149.1H122.686v-134.1h266.633v134.1zM156.602 49.698h-24.85c-4.142 0-7.5 3.357-7.5 7.5s3.358 7.5 7.5 7.5h24.85c4.142 0 7.5-3.357 7.5-7.5s-3.358-7.5-7.5-7.5zM380.254 49.699h-24.851c-4.143 0-7.5 3.357-7.5 7.5s3.357 7.5 7.5 7.5h24.851c4.143 0 7.5-3.357 7.5-7.5s-3.357-7.5-7.5-7.5zM173.17 306.48h-33.133c-13.271 0-24.068 10.797-24.068 24.068s10.797 24.067 24.068 24.067h33.133c13.271 0 24.068-10.797 24.068-24.067-.001-13.271-10.798-24.068-24.068-24.068zm0 33.136h-33.133c-5 0-9.068-4.067-9.068-9.067s4.068-9.068 9.068-9.068h33.133c5 0 9.068 4.068 9.068 9.068s-4.068 9.067-9.068 9.067zM371.971 306.481h-33.134c-13.272 0-24.068 10.797-24.068 24.068-.001 13.27 10.796 24.067 24.068 24.067h33.134c13.271 0 24.067-10.797 24.067-24.067 0-13.271-10.797-24.068-24.067-24.068zm0 33.134h-33.134c-5 0-9.068-4.067-9.068-9.067s4.068-9.068 9.068-9.068h33.134c5 0 9.067 4.068 9.067 9.068s-4.067 9.067-9.067 9.067z" data-original="#000000" class="nactive-path" data-old_color="#000000" fill="#CCCCCCCC"/></svg><svg viewBox="-10 -10 532 532" width="532" height="532" id="icon_train_selected" x="1064" y="1596" xmlns="http://www.w3.org/2000/svg"><path d="M156.602 49.698h-24.85c-4.142 0-7.5 3.357-7.5 7.5s3.358 7.5 7.5 7.5h24.85c4.142 0 7.5-3.357 7.5-7.5s-3.358-7.5-7.5-7.5zM380.254 49.699h-24.851c-4.143 0-7.5 3.357-7.5 7.5s3.357 7.5 7.5 7.5h24.851c4.142 0 7.5-3.357 7.5-7.5s-3.357-7.5-7.5-7.5z" data-original="#000000" class="oactive-path" data-old_color="#000000" fill="#666"/><path d="M388.536 16.564h-61.632l-6.21-12.419A7.5 7.5 0 00313.986 0H198.021a7.499 7.499 0 00-6.708 4.146l-6.21 12.419h-61.634c-22.406 0-40.634 18.229-40.634 40.634V388.53c0 22.405 18.228 40.633 40.634 40.633h33.135c.822 0 1.611-.137 2.352-.382L116.99 500.72a7.501 7.501 0 006.472 11.28 7.497 7.497 0 006.485-3.722l55.814-95.68h15.769l-51.405 88.121a7.5 7.5 0 0012.956 7.558l12.325-21.129 161.193-.001 12.322 21.125a7.497 7.497 0 0010.257 2.7 7.501 7.501 0 002.699-10.258L310.481 412.6h15.765l55.81 95.68a7.495 7.495 0 0010.257 2.7 7.501 7.501 0 002.699-10.258l-41.963-71.94c.741.245 1.53.382 2.352.382h33.133c22.405 0 40.633-18.228 40.633-40.633V57.198c.002-22.405-18.226-40.634-40.631-40.634zm-191.299 9.272L202.656 15h45.846v9.064a7.5 7.5 0 007.5 7.5c4.143 0 7.5-3.357 7.5-7.5V15h45.85l5.418 10.835v23.863H197.237V25.836zm-33.133 394.12V412.6h4.291l-4.291 7.356zm153.169 34.059l10.578 18.134-143.693.001 10.578-18.134 122.537-.001zm-113.787-14.998l15.41-26.417h74.218l15.41 26.416-105.038.001zm144.417-19.061l-4.291-7.356h4.291v7.356zm66.266-31.425c0 14.133-11.5 25.632-25.633 25.632h-25.633V405.1c0-4.143-3.357-7.5-7.5-7.5H297.53c-.141-.002-.282-.006-.424 0H156.604a7.5 7.5 0 00-7.5 7.5v9.063h-25.635c-14.135 0-25.634-11.499-25.634-25.633v-9.066l108.467.002a7.498 7.498 0 006.24-3.34l14.34-21.51h58.239l14.341 21.51a7.498 7.498 0 006.24 3.34h108.467v9.065zm0-24.065H309.715l-14.341-21.51a7.498 7.498 0 00-6.24-3.34h-66.266a7.497 7.497 0 00-6.24 3.34l-14.34 21.51-104.454-.002v-67.832h316.335v67.834zm0-82.834H97.835V97.833h316.334v183.799zm0-198.799H97.835V57.198c0-14.135 11.499-25.634 25.633-25.634h58.769v25.634a7.5 7.5 0 007.5 7.5h132.532c4.143 0 7.5-3.357 7.5-7.5V31.564h58.767c14.134 0 25.633 11.499 25.633 25.634v25.635z" data-original="#000000" class="oactive-path" data-old_color="#000000" fill="#666"/><path d="M396.819 107.683H115.186a7.5 7.5 0 00-7.5 7.5v149.101a7.5 7.5 0 007.5 7.5h281.633c4.143 0 7.5-3.357 7.5-7.5V115.183c0-4.143-3.357-7.5-7.5-7.5zm-7.5 149.1H122.686v-134.1h266.633v134.1zM156.602 49.698h-24.85c-4.142 0-7.5 3.357-7.5 7.5s3.358 7.5 7.5 7.5h24.85c4.142 0 7.5-3.357 7.5-7.5s-3.358-7.5-7.5-7.5zM380.254 49.699h-24.851c-4.143 0-7.5 3.357-7.5 7.5s3.357 7.5 7.5 7.5h24.851c4.143 0 7.5-3.357 7.5-7.5s-3.357-7.5-7.5-7.5zM173.17 306.48h-33.133c-13.271 0-24.068 10.797-24.068 24.068s10.797 24.067 24.068 24.067h33.133c13.271 0 24.068-10.797 24.068-24.067-.001-13.271-10.798-24.068-24.068-24.068zm0 33.136h-33.133c-5 0-9.068-4.067-9.068-9.067s4.068-9.068 9.068-9.068h33.133c5 0 9.068 4.068 9.068 9.068s-4.068 9.067-9.068 9.067zM371.971 306.481h-33.134c-13.272 0-24.068 10.797-24.068 24.068-.001 13.27 10.796 24.067 24.068 24.067h33.134c13.271 0 24.067-10.797 24.067-24.067 0-13.271-10.797-24.068-24.067-24.068zm0 33.134h-33.134c-5 0-9.068-4.067-9.068-9.067s4.068-9.068 9.068-9.068h33.134c5 0 9.067 4.068 9.067 9.068s-4.067 9.067-9.067 9.067z" data-original="#000000" class="oactive-path" data-old_color="#000000" fill="#666"/></svg></svg>